[img]http://img3.imageshack.us/img3/7117/itsawonderfulafterlife.jpg[/img]
[code]
File size                        : 708 MiB
Duration                         : 1h 36mn
Overall bit rate                 : 1 028 Kbps
Writing application              : AVI-Mux GUI 1.17.8.3, Feb 16 201019:42:50

Video
ID                               : 0
Format                           : MPEG-4 Visual
Format profile                   : Advanced Simple@L5
Format settings, BVOP            : Yes
Format settings, QPel            : No
Format settings, GMC             : No warppoints
Format settings, Matrix          : Default (H.263)
Codec ID                         : XVID
Codec ID/Hint                    : XviD
Duration                         : 1h 36mn
Bit rate                         : 897 Kbps
Width                            : 640 pixels
Height                           : 272 pixels
Display aspect ratio             : 2.35:1
Frame rate                       : 25.000 fps
Resolution                       : 8 bits
Colorimetry                      : 4:2:0
Scan type                        : Progressive
Bits/(Pixel*Frame)               : 0.206
Stream size                      : 618 MiB (87%)
Writing library                  : XviD 1.2.1 (UTC 2008-12-04)

Audio
ID                               : 1
Format                           : MPEG Audio
Format version                   : Version 1
Format profile                   : Layer 3
Mode                             : Joint stereo
Codec ID                         : 55
Codec ID/Hint                    : MP3
Duration                         : 1h 36mn
Bit rate mode                    : Constant
Bit rate                         : 128 Kbps
Channel(s)                       : 2 channels
Sampling rate                    : 48.0 KHz
Stream size                      : 88.1 MiB (12%)
Alignment                        : Aligned on interleaves
Interleave, duration             : 773 ms (19.33 video frames)
Interleave, preload duration     : 216 ms
Title                            : VTS_02_1 T80 3_2ch 448Kbps DELAY 0ms
Writing library                  : LAME3.98r
Encoding settings                : -m j -V 4 -q 2 -lowpass 17 -b 128


Imdb Link: http://www.imdb.com/title/tt1319716/

Sanjeev Bhaskar	 ... Curry Man
Steve Morphew	... A&E Doctor
Steve Jones	... Earnest Reporter
Jamie Sives	... Detective Hughes
Sendhil Ramamurthy	... D S Murthy
Mark Addy	... D I Smythe
Shabana Azmi	... Mrs. Sethi

A comedy centered on an Indian mother who takes her obsession with marriage into the world of serial murder.

sample provided
[/code]
Screens:
[img]http://img818.imageshack.us/img818/3581/33672729.png[/img]
[img]http://img153.imageshack.us/img153/9629/51730043.png[/img]
[img]http://img20.imageshack.us/img20/1481/68420829.png[/img]
[img]http://img691.imageshack.us/img691/769/30315926.png[/img]
[img]http://img94.imageshack.us/img94/5559/22384504.jpg[/img]